<svg xmlns="http://www.w3.org/2000/svg" viewBox="0 0 64 64" width="64" height="64">
  <defs>
    <linearGradient id="bg" x1="0%" y1="0%" x2="100%" y2="100%">
      <stop offset="0%" stop-color="#d4a574"/>
      <stop offset="100%" stop-color="#8e44ad"/>
    </linearGradient>
  </defs>
  <path d="M32 4C16.536 4 4 16.536 4 32c0 10.075 5.16 18.935 12.96 24.195C19.68 56.1 21.36 56 23 56c7.5 0 14-4.5 17-11 0 0 .5-2 2.5-2s3 2 3 5c0 5-4 9-9 9-4 0-7.5-2-10-5-2.5 3.5-6 6-11 6C9 58 2 48 2 32 2 15.43 15.43 2 32 2h0z" fill="url(#bg)"/>
  <circle cx="20" cy="24" r="4.5" fill="#e74c3c"/>
  <circle cx="34" cy="18" r="4" fill="#3498db"/>
  <circle cx="24" cy="36" r="3.5" fill="#2ecc71"/>
  <circle cx="40" cy="30" r="4" fill="#f39c12"/>
  <circle cx="32" cy="42" r="3" fill="#9b59b6"/>
</svg>
